<mxfile host="65bd71144e">
    <diagram id="Zr9KO-2940ogap4Imy7e" name="第 1 页">
        <mxGraphModel dx="759" dy="639" grid="0" gridSize="10" guides="1" tooltips="1" connect="1" arrows="1" fold="1" page="1" pageScale="1" pageWidth="1654" pageHeight="2336" background="#ffffff" math="0" shadow="0">
            <root>
                <mxCell id="0"/>
                <mxCell id="1" parent="0"/>
                <mxCell id="3" value="" style="endArrow=none;html=1;fontSize=25;fontColor=#000000;strokeWidth=2;strokeColor=#000000;entryX=0.5;entryY=1;entryDx=0;entryDy=0;exitX=0.5;exitY=0;exitDx=0;exitDy=0;" edge="1" parent="1" source="8" target="9">
                    <mxGeometry width="50" height="50" relative="1" as="geometry">
                        <mxPoint x="455" y="891" as="sourcePoint"/>
                        <mxPoint x="456" y="856" as="targetPoint"/>
                    </mxGeometry>
                </mxCell>
                <mxCell id="4" value="" style="endArrow=none;html=1;fontSize=25;fontColor=#000000;strokeWidth=2;strokeColor=#000000;exitX=0.5;exitY=0;exitDx=0;exitDy=0;entryX=0.5;entryY=1;entryDx=0;entryDy=0;" edge="1" parent="1" source="10" target="8">
                    <mxGeometry width="50" height="50" relative="1" as="geometry">
                        <mxPoint x="486" y="721" as="sourcePoint"/>
                        <mxPoint x="486" y="663" as="targetPoint"/>
                    </mxGeometry>
                </mxCell>
                <mxCell id="5" value="" style="endArrow=none;html=1;fontSize=25;fontColor=#000000;strokeWidth=2;strokeColor=#000000;exitX=0.5;exitY=0;exitDx=0;exitDy=0;entryX=0.5;entryY=1;entryDx=0;entryDy=0;" edge="1" parent="1" source="11" target="8">
                    <mxGeometry width="50" height="50" relative="1" as="geometry">
                        <mxPoint x="490" y="721" as="sourcePoint"/>
                        <mxPoint x="490" y="663" as="targetPoint"/>
                    </mxGeometry>
                </mxCell>
                <mxCell id="8" value="&lt;b&gt;文件&lt;/b&gt;" style="rounded=0;whiteSpace=wrap;html=1;labelBackgroundColor=#CCFFFF;fontSize=25;fontColor=#000000;fillColor=#CCFFFF;" vertex="1" parent="1">
                    <mxGeometry x="406" y="882" width="99" height="49" as="geometry"/>
                </mxCell>
                <mxCell id="9" value="&lt;font color=&quot;#000000&quot; style=&quot;font-size: 20px&quot;&gt;文件ID&lt;/font&gt;" style="ellipse;whiteSpace=wrap;html=1;fontSize=25;fillColor=#99FFCC;" vertex="1" parent="1">
                    <mxGeometry x="397.5" y="765" width="116" height="53" as="geometry"/>
                </mxCell>
                <mxCell id="10" value="&lt;font color=&quot;#000000&quot; style=&quot;font-size: 20px&quot;&gt;存储位置&lt;/font&gt;" style="ellipse;whiteSpace=wrap;html=1;fontSize=25;fillColor=#99FFCC;" vertex="1" parent="1">
                    <mxGeometry x="505" y="994" width="116" height="53" as="geometry"/>
                </mxCell>
                <mxCell id="11" value="&lt;font color=&quot;#000000&quot;&gt;&lt;span style=&quot;font-size: 20px&quot;&gt;文件名&lt;/span&gt;&lt;/font&gt;" style="ellipse;whiteSpace=wrap;html=1;fontSize=25;fillColor=#99FFCC;" vertex="1" parent="1">
                    <mxGeometry x="290" y="994" width="116" height="53" as="geometry"/>
                </mxCell>
            </root>
        </mxGraphModel>
    </diagram>
</mxfile>